<svg width="68" height="68" viewBox="0 0 68 68" fill="none" xmlns="http://www.w3.org/2000/svg">
<g filter="url(#filter0_d)">
<rect x="4" y="2" width="60" height="60" rx="30" fill="white"/>
<rect x="4.5" y="2.5" width="59" height="59" rx="29.5" stroke="#F17E00"/>
</g>
<g clip-path="url(#clip0)">
<path fill-rule="evenodd" clip-rule="evenodd" d="M31.4717 12.9138L23.6932 24.0502H15.4943C13.1818 24.0502 11.5 25.6411 11.5 27.8286V28.4252L16.3352 45.9252C16.9659 48.3116 19.4886 50.1014 22.0114 50.1014H47.2386C49.9716 50.1014 52.2841 48.3116 52.9148 45.9252L57.75 29.0218V28.0275C57.75 25.6411 56.0682 24.0502 53.7557 24.0502H45.6283L37.9887 13.1127L37.7785 12.715C37.3581 12.1184 36.3069 11.3229 34.8353 11.3229C33.3637 11.3229 32.3126 11.9195 31.4717 12.9138ZM40.7934 24.0502L34.8353 15.499L28.7386 24.0502H40.7934ZM34.625 42.3125C37.8179 42.3125 40.4063 39.864 40.4063 36.8437C40.4063 33.8234 37.8179 31.375 34.625 31.375C31.4321 31.375 28.8438 33.8234 28.8438 36.8437C28.8438 39.864 31.4321 42.3125 34.625 42.3125Z" fill="#F17E00"/>
</g>
<ellipse cx="34" cy="35.75" rx="11.25" ry="10" fill="white"/>
<defs>
<filter id="filter0_d" x="0" y="0" width="68" height="68" filterUnits="userSpaceOnUse" color-interpolation-filters="sRGB">
<feFlood flood-opacity="0" result="BackgroundImageFix"/>
<feColorMatrix in="SourceAlpha" type="matrix" values="0 0 0 0 0 0 0 0 0 0 0 0 0 0 0 0 0 0 127 0"/>
<feOffset dy="2"/>
<feGaussianBlur stdDeviation="2"/>
<feColorMatrix type="matrix" values="0 0 0 0 0 0 0 0 0 0 0 0 0 0 0 0 0 0 0.1 0"/>
<feBlend mode="normal" in2="BackgroundImageFix" result="effect1_dropShadow"/>
<feBlend mode="normal" in="SourceGraphic" in2="effect1_dropShadow" result="shape"/>
</filter>
<clipPath id="clip0">
<rect x="11.5" y="9.5" width="46.25" height="43.75" fill="white"/>
</clipPath>
</defs>
</svg>
