<svg width="24" height="24" viewBox="0 0 24 24" fill="none" xmlns="http://www.w3.org/2000/svg">
<g clip-path="url(#clip0)">
<path d="M12 0C5.3833 0 0 5.3833 0 12C0 18.6168 5.3833 24 12 24C18.6168 24 24 18.6168 24 12C24 5.3833 18.6167 0 12 0ZM12.7806 19.1199C12.2105 19.215 11.0761 19.4523 10.5 19.5C10.0124 19.5404 9.55225 19.2613 9.27175 18.8606C8.99052 18.46 8.92313 17.9473 9.09009 17.4873L11.3584 11.25H8.99999C8.99798 9.95036 9.97284 8.99473 11.2197 8.62798C11.8147 8.45291 12.9233 8.21334 13.5 8.25006C13.8455 8.27203 14.4477 8.4888 14.7282 8.88948C15.0095 9.29011 15.0769 9.80281 14.9099 10.2628L12.6416 16.5001H14.9993C14.9997 17.7982 14.0612 18.9065 12.7806 19.1199ZM13.5 7.50003C12.6715 7.50003 12 6.82837 12 6.00001C12 5.17156 12.6715 4.5 13.5 4.5C14.3284 4.5 15 5.17156 15 6.00001C15 6.82842 14.3285 7.50003 13.5 7.50003Z" fill="white"/>
</g>
<defs>
<clipPath id="clip0">
<rect width="24" height="24" fill="white"/>
</clipPath>
</defs>
</svg>
