<svg width="20" height="20" viewBox="0 0 20 20" fill="none" xmlns="http://www.w3.org/2000/svg">
<path d="M10.0314 0C5.97202 0 2.66669 3.30533 2.66669 7.36472C2.66669 8.42352 2.88157 9.43544 3.31134 10.3692C5.15155 14.3973 8.68349 18.6521 9.72275 19.8593C9.80089 19.9492 9.9142 20 10.0314 20C10.1486 20 10.2658 19.9492 10.3401 19.8593C11.3793 18.6521 14.9074 14.3973 16.7515 10.3692C17.1773 9.43544 17.3961 8.42352 17.3961 7.36472C17.3961 3.30533 14.0908 0 10.0314 0ZM10.0314 11.1897C7.92162 11.1897 6.20644 9.47451 6.20644 7.36472C6.20644 5.25493 7.92162 3.53975 10.0314 3.53975C12.1412 3.53975 13.8564 5.25493 13.8564 7.36472C13.8564 9.47451 12.1412 11.1897 10.0314 11.1897Z" fill="#F17E00"/>
</svg>
