<svg width="18" height="24" viewBox="0 0 18 24" fill="none" xmlns="http://www.w3.org/2000/svg">
<path d="M9.03774 0C4.16647 0 0.200073 3.9664 0.200073 8.83766C0.200073 10.1082 0.457936 11.3225 0.973662 12.4431C3.18191 17.2768 7.42023 22.3825 8.66735 23.8312C8.76112 23.9391 8.89708 24 9.03774 24C9.17839 24 9.31904 23.9391 9.40812 23.8312C10.6552 22.3825 14.8889 17.2768 17.1018 12.4431C17.6128 11.3225 17.8754 10.1082 17.8754 8.83766C17.8754 3.9664 13.909 0 9.03774 0ZM9.03774 13.4276C6.50599 13.4276 4.44778 11.3694 4.44778 8.83766C4.44778 6.30592 6.50599 4.2477 9.03774 4.2477C11.5695 4.2477 13.6277 6.30592 13.6277 8.83766C13.6277 11.3694 11.5695 13.4276 9.03774 13.4276Z" fill="white"/>
</svg>
