<svg width="16" height="12" viewBox="0 0 16 12" fill="none" xmlns="http://www.w3.org/2000/svg">
<path d="M2.18175 6H0L2.90925 8.90925L5.81875 6H3.637C3.644 3.59325 5.59325 1.64375 8 1.6365C8.7085 1.65 9.40475 1.824 10.0363 2.14575L11.1267 1.05525C10.175 0.504501 9.09925 0.204001 8 0.182251C4.7905 0.191001 2.19075 2.7905 2.18175 6ZM12.363 6C12.356 8.40675 10.4067 10.3563 8 10.3635C7.2915 10.35 6.59525 10.176 5.96375 9.85425L4.87325 10.9448C5.825 11.4955 6.90075 11.796 8 11.8178C11.2092 11.8085 13.8088 9.20925 13.8182 6H16L13.0907 3.09075L10.1812 6H12.363Z" fill="#F17E00"/>
</svg>
