<svg width="24" height="24" viewBox="0 0 24 24" fill="none" xmlns="http://www.w3.org/2000/svg">
<g clip-path="url(#clip0)">
<path d="M9.00042 8.25111C9.00042 7.83714 9.3364 7.50116 9.75037 7.50116C10.1643 7.50116 10.5003 7.83714 10.5003 8.25111C10.5003 8.66508 10.1643 9.00106 9.75037 9.00106C9.3364 9.00106 9.00042 8.66508 9.00042 8.25111Z" fill="white"/>
<path d="M14.2501 15.0007C13.8376 15.0007 13.5001 15.3381 13.5001 15.7506C13.5001 16.1631 13.8376 16.5006 14.2501 16.5006C14.6625 16.5006 15 16.1631 15 15.7506C15 15.3381 14.6625 15.0007 14.2501 15.0007Z" fill="white"/>
<path fill-rule="evenodd" clip-rule="evenodd" d="M23.9499 9.25454L22.897 12.0009L23.9499 14.7472C24.0654 15.0502 23.9754 15.3921 23.7219 15.5976L21.4391 17.447L20.9771 20.3523C20.9261 20.6733 20.6741 20.9253 20.3532 20.9763L17.4478 21.4382L15.5985 23.7211C15.453 23.9026 15.2355 24 15.015 24C14.9235 24 14.8335 23.9836 14.7465 23.9506L12.0002 22.8976L9.25541 23.9491C8.95243 24.066 8.60895 23.9761 8.40347 23.7211L6.55259 21.4382L3.64729 20.9763C3.32631 20.9253 3.07583 20.6733 3.02483 20.3523L2.56287 17.447L0.278521 15.5976C0.0265384 15.3936 -0.0664553 15.0502 0.0505367 14.7472L1.10346 12.0009L0.0505367 9.25454C-0.0649554 8.95156 0.0265384 8.60809 0.278521 8.4041L2.56287 6.55322L3.02483 3.64792C3.07583 3.32844 3.32781 3.07646 3.64729 3.02546L6.55259 2.56349L8.40347 0.279143C8.60895 0.02716 8.94943 -0.0658338 9.25391 0.0511584L12.0002 1.10409L14.748 0.0496585C15.0435 -0.0658338 15.3945 0.0241602 15.5985 0.277643L17.4478 2.56199L20.3532 3.02396C20.6741 3.07496 20.9261 3.32544 20.9771 3.64642L21.4391 6.55172L23.7219 8.4026C23.9754 8.60809 24.0654 8.95156 23.9499 9.25454ZM7.50053 8.25111C7.50053 9.49153 8.50996 10.501 9.75037 10.501C10.9908 10.501 12.0002 9.49153 12.0002 8.25111C12.0002 7.01069 10.9908 6.00126 9.75037 6.00126C8.50996 6.00126 7.50053 7.01069 7.50053 8.25111ZM14.2501 18.0005C13.0097 18.0005 12.0002 16.991 12.0002 15.7506C12.0002 14.5102 13.0097 13.5008 14.2501 13.5008C15.4905 13.5008 16.4999 14.5102 16.4999 15.7506C16.4999 16.991 15.4905 18.0005 14.2501 18.0005ZM7.8155 17.861C7.9475 17.9555 8.09898 18.0005 8.25047 18.0005C8.48446 18.0005 8.71394 17.891 8.86243 17.6855L16.3619 7.18618C16.6019 6.8502 16.5254 6.38073 16.1879 6.14075C15.8505 5.89927 15.3825 5.97726 15.141 6.31474L7.64152 16.814C7.40003 17.1515 7.47803 17.6195 7.8155 17.861Z" fill="white"/>
</g>
<defs>
<clipPath id="clip0">
<rect width="24" height="24" fill="white"/>
</clipPath>
</defs>
</svg>
