<svg width="15" height="15" viewBox="0 0 15 15" fill="none" xmlns="http://www.w3.org/2000/svg">
<g clip-path="url(#clip0)">
<path d="M15.6443 13.904L12.3463 10.606C13.1411 9.45864 13.5387 8.17956 13.5387 6.76943C13.5387 5.85277 13.3607 4.97608 13.0048 4.13957C12.6491 3.30293 12.1683 2.5818 11.5625 1.97603C10.9568 1.37025 10.2357 0.889418 9.39928 0.533705C8.56254 0.17789 7.68593 0 6.76928 0C5.8527 0 4.97602 0.17789 4.13952 0.533705C3.30289 0.889418 2.58177 1.37025 1.976 1.97603C1.37016 2.5818 0.889407 3.30306 0.533665 4.13957C0.177888 4.97618 0 5.85277 0 6.76943C0 7.68603 0.177888 8.56242 0.533665 9.39916C0.889374 10.2357 1.37016 10.9567 1.976 11.5625C2.58177 12.1685 3.30302 12.6491 4.13952 13.005C4.97612 13.3607 5.8527 13.5386 6.76928 13.5386C8.17969 13.5386 9.45855 13.141 10.606 12.3462L13.904 15.6346C14.1348 15.8782 14.4229 16 14.7693 16C15.1026 16 15.3913 15.8782 15.6347 15.6346C15.8782 15.3911 16 15.1026 16 14.7693C16.0001 14.4298 15.8815 14.1412 15.6443 13.904ZM9.81258 9.81243C8.96965 10.6555 7.95529 11.077 6.76928 11.077C5.58347 11.077 4.56912 10.6554 3.72612 9.81243C2.88312 8.96949 2.46164 7.95526 2.46164 6.76923C2.46164 5.58341 2.88322 4.56887 3.72612 3.72603C4.56895 2.88299 5.58347 2.46154 6.76928 2.46154C7.95516 2.46154 8.96951 2.88316 9.81258 3.72603C10.6556 4.56887 11.0771 5.58341 11.0771 6.76923C11.0771 7.95526 10.6555 8.96949 9.81258 9.81243Z" fill="#50CE1B"/>
</g>
<defs>
<clipPath id="clip0">
<rect width="15" height="15" fill="white"/>
</clipPath>
</defs>
</svg>
