<svg width="16" height="16" viewBox="0 0 16 16" fill="none" xmlns="http://www.w3.org/2000/svg">
<path d="M8.46649 7.79846V0.449719C8.46649 0.199875 8.26661 0 8.01677 0C7.76693 0 7.56705 0.199875 7.56705 0.449719V7.79846C6.52437 8.00833 5.73486 8.93108 5.73486 10.0371C5.73486 11.143 6.52437 12.0658 7.56705 12.2757V15.547C7.56705 15.7968 7.76693 15.9967 8.01677 15.9967C8.26661 15.9967 8.46649 15.7968 8.46649 15.547V12.2757C9.50917 12.0658 10.2987 11.143 10.2987 10.0371C10.2987 8.93442 9.5125 8.00833 8.46649 7.79846ZM8.01677 11.4195C7.25391 11.4195 6.6343 10.7999 6.6343 10.0371C6.6343 9.2742 7.25391 8.65459 8.01677 8.65459C8.77963 8.65459 9.39924 9.2742 9.39924 10.0371C9.39924 10.7999 8.77963 11.4195 8.01677 11.4195Z" fill="black"/>
<path d="M2.9599 4.02748V0.449719C2.9599 0.199875 2.76002 0 2.51018 0C2.26033 0 2.06046 0.199875 2.06046 0.449719V4.02748C1.01778 4.23735 0.228271 5.16011 0.228271 6.26608C0.228271 7.37206 1.01778 8.29482 2.06046 8.50469V15.547C2.06046 15.7968 2.26033 15.9967 2.51018 15.9967C2.76002 15.9967 2.9599 15.7968 2.9599 15.547V8.50135C4.00258 8.29148 4.79209 7.36873 4.79209 6.26275C4.79209 5.15678 4.00258 4.23735 2.9599 4.02748ZM2.51018 7.64855C1.74732 7.64855 1.12771 7.02894 1.12771 6.26608C1.12771 5.50323 1.74732 4.88362 2.51018 4.88362C3.27303 4.88362 3.89265 5.50323 3.89265 6.26608C3.89265 7.02894 3.2697 7.64855 2.51018 7.64855Z" fill="black"/>
<path d="M13.9396 4.02748V0.449719C13.9396 0.199875 13.7398 0 13.4899 0C13.2401 0 13.0402 0.199875 13.0402 0.449719V4.02748C11.9975 4.23735 11.208 5.16011 11.208 6.26608C11.208 7.37206 11.9975 8.29482 13.0402 8.50469V15.5503C13.0402 15.8001 13.2401 16 13.4899 16C13.7398 16 13.9396 15.8001 13.9396 15.5503V8.50135C14.9823 8.29148 15.7718 7.36873 15.7718 6.26275C15.7718 5.15678 14.9856 4.23735 13.9396 4.02748ZM13.4899 7.64855C12.7271 7.64855 12.1074 7.02894 12.1074 6.26608C12.1074 5.50323 12.7271 4.88362 13.4899 4.88362C14.2528 4.88362 14.8724 5.50323 14.8724 6.26608C14.8724 7.02894 14.2528 7.64855 13.4899 7.64855Z" fill="black"/>
</svg>
