<svg width="160" height="202" viewBox="0 0 160 202" fill="none" xmlns="http://www.w3.org/2000/svg">
<path d="M8.80424 168.466L15.0124 201.652L21.2769 200.466L16.0847 172.586L26.0741 170.724L31.2663 198.604L37.5309 197.419L31.3228 164.29L8.80424 168.466Z" fill="#F17E00"/>
<path d="M57.4533 163.048C55.2522 161.017 51.9224 160.396 47.4638 161.242C43.0053 162.089 40.127 163.838 38.8289 166.547C37.5309 169.256 37.4744 173.715 38.6596 180.036C39.8448 186.357 41.5379 190.533 43.6825 192.565C45.8836 194.597 49.157 195.218 53.672 194.371C58.1305 193.525 61.0088 191.775 62.3633 189.066C63.6614 186.357 63.7178 181.898 62.5326 175.521C61.3474 169.256 59.6543 165.08 57.4533 163.048ZM56.4938 185.623C55.9859 187.26 54.7443 188.276 52.5996 188.671C50.5115 189.066 48.9312 188.558 47.8589 187.204C46.7866 185.849 45.8836 183.027 45.0935 178.794C44.3033 174.562 44.134 171.627 44.642 169.99C45.1499 168.353 46.3915 167.338 48.5362 166.943C50.6243 166.548 52.2046 167.055 53.2769 168.41C54.3492 169.764 55.2522 172.586 56.0423 176.819C56.8325 181.052 57.0018 183.987 56.4938 185.623Z" fill="#F17E00"/>
<path d="M76.5291 184.1C75.8519 184.212 75.3439 184.156 74.9489 183.817C74.5538 183.479 74.3281 182.858 74.1587 182.011L72.9736 175.69L84.2046 173.602L83.2452 168.353L72.0141 170.442L71.0547 165.419C70.8854 164.572 70.9418 163.895 71.1676 163.5C71.3933 163.048 71.8448 162.766 72.5221 162.653L83.358 160.622L82.5679 155.204C79.9718 155.373 75.5697 155.994 69.418 157.179C67.5556 157.518 66.2011 158.421 65.2981 159.775C64.3951 161.186 64.1129 162.879 64.508 164.911L68.2328 184.833C68.6279 186.865 69.4744 188.389 70.8289 189.348C72.1834 190.308 73.7637 190.646 75.6261 190.308C81.7778 189.179 86.1235 188.163 88.6067 187.373L87.3651 182.068L76.5291 184.1Z" fill="#F17E00"/>
<path d="M102.208 178.964C100.176 179.359 98.709 178.851 97.6931 177.553C96.6772 176.198 95.7742 173.546 95.0406 169.539C94.3069 165.532 94.1376 162.71 94.5891 161.073C95.0406 159.493 96.2822 158.477 98.3139 158.082C101.362 157.518 103.958 157.122 106.159 156.84L105.707 151.479C103.111 151.197 100.289 151.366 97.1852 151.987C92.8959 152.777 90.1305 154.583 88.8324 157.405C87.5344 160.226 87.478 164.629 88.6067 170.724C89.7355 176.819 91.4286 180.939 93.6296 183.084C95.8307 185.228 99.104 185.906 103.393 185.115C106.892 184.438 109.771 183.479 112.028 182.181L110.504 177.045C108.698 177.609 105.933 178.286 102.208 178.964Z" fill="#F17E00"/>
<path d="M130.991 145.609L107.795 149.955L108.924 155.937L117.39 154.357L122.469 181.503L128.734 180.375L123.654 153.172L132.12 151.592L130.991 145.609Z" fill="#F17E00"/>
<path d="M159.549 163.839C158.815 159.831 157.517 157.179 155.767 155.937C154.018 154.696 151.196 154.413 147.358 155.147L143.182 155.937L140.924 143.803L134.716 144.988L140.868 177.722L141.037 177.666C143.633 177.44 147.414 176.876 152.325 175.916C155.654 175.295 157.855 174.11 158.984 172.361C160.113 170.611 160.282 167.789 159.549 163.839ZM153.284 168.974C152.889 169.708 151.873 170.216 150.236 170.555L146.06 171.345L144.141 161.017L148.317 160.226C149.954 159.944 151.139 160.057 151.76 160.734C152.381 161.355 152.889 162.71 153.284 164.798C153.623 166.83 153.679 168.184 153.284 168.974Z" fill="#F17E00"/>
<path d="M111.238 100.008C109.432 98.0889 106.554 97.3552 102.547 97.8067C98.5397 98.2582 95.8871 99.6127 94.5891 101.927C93.291 104.184 92.9524 108.191 93.5732 113.835C94.194 119.479 95.4356 123.26 97.2416 125.235C99.0476 127.154 101.926 127.888 105.933 127.436C109.94 126.985 112.593 125.63 113.891 123.316C115.189 121.003 115.527 117.052 114.907 111.408C114.229 105.708 113.044 101.927 111.238 100.008ZM108.924 119.874C108.416 121.285 107.175 122.131 105.312 122.357C103.45 122.583 102.095 122.018 101.249 120.777C100.402 119.479 99.7813 116.995 99.3298 113.214C98.8783 109.433 98.9347 106.837 99.4991 105.426C100.007 104.015 101.249 103.168 103.111 102.943C104.974 102.717 106.328 103.281 107.175 104.523C108.021 105.821 108.642 108.304 109.093 112.085C109.489 115.81 109.489 118.406 108.924 119.874Z" fill="#50CE1B"/>
<path d="M130.145 94.6463L131.612 107.345C129.806 108.473 127.944 109.094 126.081 109.32C125.009 109.433 124.275 109.32 123.767 108.868C123.316 108.473 123.034 107.683 122.921 106.555L121.679 95.5492L116.148 96.1701L117.559 108.586C117.841 111.07 118.575 112.819 119.704 113.835C120.889 114.851 122.526 115.246 124.67 115.02C127.21 114.738 129.524 114.174 132.176 112.819L133.474 124.163L139.005 123.542L135.619 93.9126L130.145 94.6463Z" fill="#50CE1B"/>
<path d="M153.397 91.9937L150.744 105.764L145.27 92.8967L138.667 93.6868L148.825 115.697L147.527 122.639L153.115 122.018L160 91.26L153.397 91.9937Z" fill="#50CE1B"/>
<path d="M90.1869 99.2177L84.5432 99.8385L81.157 112.593L74.9489 100.911L69.3051 101.588L76.9242 115.302L72.1834 131.218L77.8272 130.597L81.6085 116.995L88.381 129.412L94.0811 128.734L85.8413 114.286L90.1869 99.2177Z" fill="#50CE1B"/>
<path d="M0 147.415C13.4885 129.412 26.9771 111.352 40.4092 93.3482L22.6314 99.2741C15.0688 115.359 7.56261 131.387 0 147.415Z" fill="#F17E00"/>
<path d="M41.1993 142.054C45.3192 128.057 49.4392 111.69 53.5591 97.6939L40.4092 93.2918C40.6914 108.756 40.9735 126.646 41.1993 142.054Z" fill="#F17E00"/>
<path d="M73.0864 34.5404C65.9753 34.9919 59.4286 35.8385 53.672 36.9108L60.5009 51.5845C71.3933 45.8279 82.2293 40.1278 93.1217 34.4276C87.1393 34.0889 80.4233 34.0889 73.0864 34.5404Z" fill="#F17E00"/>
<path d="M19.5273 60.8403C11.4003 70.9426 6.77248 80.8755 4.11992 88.0431C13.0935 81.3835 22.067 74.7803 31.0406 68.1207L36.5714 44.3605C31.5485 48.1419 25.4533 53.5034 19.5273 60.8403Z" fill="#F17E00"/>
<path d="M155.203 16.932C154.864 16.932 154.469 16.932 154.074 16.932C149.503 16.9884 144.367 17.3835 138.78 18.1736C131.048 19.2459 124.275 20.9955 118.575 22.745C118.518 22.745 118.518 22.8015 118.462 22.8015C115.809 24.4946 113.157 26.2441 110.504 27.9373C116.769 25.6233 124.501 23.3658 133.305 21.7856C143.464 19.9796 152.437 19.5845 159.605 19.8103C159.718 18.8508 159.831 17.9478 159.944 16.9884C158.363 16.9884 156.783 16.9884 155.203 16.932Z" fill="#F17E00"/>
<path d="M95.3792 33.581C97.0723 33.2988 99.2734 32.7909 101.757 31.7186C104.014 30.7027 105.82 29.574 107.118 28.5581C105.651 28.6145 103.393 28.8967 100.797 29.969C98.2011 31.1542 96.4515 32.6216 95.3792 33.581Z" fill="#F17E00"/>
<path d="M6.37742 160.057C4.34568 156.502 2.03175 152.89 0 149.334C53.164 143.521 106.78 137.087 160 131.274C108.868 140.643 57.5097 150.632 6.37742 160.057Z" fill="#50CE1B"/>
<path d="M56.0988 30.4205C57.3404 28.2195 58.8078 26.5828 59.9365 25.5105C61.5732 26.5263 63.2099 27.4858 64.7901 28.5016C64.0564 26.4699 63.3792 24.0995 62.8713 21.3341C62.3633 18.738 62.1376 16.424 62.0247 14.3359C62.7584 12.417 63.9436 9.82087 65.9189 7.16831C68.4021 3.83851 71.1111 1.69388 73.03 0.395825C69.813 -0.0556743 64.9594 -0.337861 59.2593 0.790886C54.2928 1.75032 50.3422 3.49988 47.6332 4.91082C44.8677 8.40993 41.0864 14.223 38.6032 22.1807C35.6684 31.5493 36.0071 39.6198 36.515 44.3605L31.0406 68.1207C28.2187 78.5052 25.4533 88.8896 22.6314 99.3306L40.4092 93.4046L53.5591 97.8067C56.381 83.5281 57.679 65.9196 60.5009 51.641L53.672 36.9672C54.0106 35.2741 54.6878 32.9038 56.0988 30.4205Z" fill="#50CE1B"/>
<path d="M138.723 18.1736C144.31 17.3835 149.446 17.0448 154.018 16.932C153.623 14.8438 152.155 9.31293 147.076 6.03956C144.593 4.40287 141.658 3.61275 138.667 3.55631C138.554 2.31469 137.82 1.12951 136.635 0.452257C134.829 -0.507179 132.402 0.113633 131.104 1.91963C130.427 2.82263 130.032 4.12069 130.201 5.24943C127.661 6.37818 125.347 7.95843 123.485 10.0466C119.196 14.7874 118.575 20.4875 118.462 22.8015C118.518 22.8015 118.518 22.745 118.575 22.745C124.219 20.9955 131.048 19.3023 138.723 18.1736ZM132.515 2.99194C133.249 1.97607 134.66 1.63744 135.675 2.14538C136.296 2.484 136.691 3.10481 136.804 3.61275C135.168 3.72563 133.531 4.06425 131.951 4.57219C131.951 4.12069 132.176 3.44344 132.515 2.99194Z" fill="#50CE1B"/>
<path d="M94.4197 31.8314C95.4921 30.8156 97.2416 29.4611 99.6684 28.3888C102.265 27.26 104.578 26.9214 106.102 26.865C105.707 26.6956 102.208 25.059 98.5961 26.865C95.5485 28.3888 94.5891 31.2671 94.4197 31.8314Z" fill="#50CE1B"/>
<path d="M108.021 30.0255C107.005 31.0413 105.312 32.5651 102.772 33.7503C100.12 34.9355 97.7495 35.2177 96.2822 35.2741C96.7337 35.4999 99.8377 36.8544 103.224 35.387C106.78 33.8632 107.852 30.477 108.021 30.0255Z" fill="#50CE1B"/>
</svg>
