<svg width="12" height="12" viewBox="0 0 12 12" fill="none" xmlns="http://www.w3.org/2000/svg">
<g clip-path="url(#clip0)">
<path d="M5.03893 6.16406C5.03893 6.29351 4.934 6.39844 4.80456 6.39844C4.67512 6.39844 4.57018 6.29351 4.57018 6.16406C4.57018 6.03462 4.67512 5.92969 4.80456 5.92969C4.934 5.92969 5.03893 6.03462 5.03893 6.16406Z" fill="#50CE1B"/>
<path d="M7.19518 6.39844C7.32462 6.39844 7.42956 6.29351 7.42956 6.16406C7.42956 6.03462 7.32462 5.92969 7.19518 5.92969C7.06574 5.92969 6.96081 6.03462 6.96081 6.16406C6.96081 6.29351 7.06574 6.39844 7.19518 6.39844Z" fill="#50CE1B"/>
<path fill-rule="evenodd" clip-rule="evenodd" d="M3.04674 7.26563C3.04674 6.79801 3.05025 6.37686 3.05607 6.07336C3.05898 5.92122 3.06244 5.80058 3.06622 5.71902C3.06781 5.68473 3.06933 5.66007 3.07065 5.64395C3.07634 5.62189 3.07943 5.59878 3.07955 5.57498C3.35558 4.17714 4.57333 3.16849 6.00029 3.16406C7.44097 3.16426 8.66904 4.19764 8.92371 5.61808C8.92424 5.62142 8.92483 5.62475 8.92548 5.62805L8.9297 5.65178C8.93087 5.66769 8.93217 5.68988 8.93352 5.71902C8.9373 5.80058 8.94076 5.92122 8.94367 6.07336C8.94941 6.37315 8.95291 6.78771 8.95299 7.24846C8.83614 8.16784 8.05471 8.86002 7.12365 8.86407L7.01727 8.86453L6.93783 8.93527C6.40226 9.4122 5.59279 9.4122 5.05722 8.93527L4.97726 8.86406H4.87018C3.95181 8.86406 3.1771 8.18487 3.04637 7.28023C3.04662 7.27539 3.04674 7.27052 3.04674 7.26563ZM4.49882 7.39213C4.59464 7.26987 4.77143 7.24845 4.89368 7.34427L5.06559 7.47901C5.61537 7.89726 6.37898 7.89809 6.93455 7.47869L7.10606 7.34427C7.22831 7.24845 7.4051 7.26987 7.50092 7.39213C7.59674 7.51438 7.57531 7.69116 7.45306 7.78698L7.27777 7.92437L7.27589 7.92579C6.51959 8.49842 5.47572 8.49917 4.72307 7.9252L4.72159 7.92407L4.54668 7.78699C4.42443 7.69116 4.403 7.51438 4.49882 7.39213ZM4.80456 5.83594C4.62334 5.83594 4.47643 5.98285 4.47643 6.16406C4.47643 6.34528 4.62334 6.49219 4.80456 6.49219C4.98578 6.49219 5.13268 6.34528 5.13268 6.16406C5.13268 5.98285 4.98578 5.83594 4.80456 5.83594ZM6.86706 6.16406C6.86706 5.98285 7.01396 5.83594 7.19518 5.83594C7.3764 5.83594 7.52331 5.98285 7.52331 6.16406C7.52331 6.34528 7.3764 6.49219 7.19518 6.49219C7.01396 6.49219 6.86706 6.34528 6.86706 6.16406Z" fill="#50CE1B"/>
<path d="M2.48485 6.93203C2.29068 6.84201 2.15612 6.64542 2.15612 6.41719C2.15612 6.18409 2.29649 5.98398 2.49737 5.89673C2.49605 5.94755 2.49481 6.00303 2.49367 6.06258C2.4892 6.29589 2.4861 6.59608 2.48485 6.93203Z" fill="#50CE1B"/>
<path d="M9.51488 6.92983C9.70653 6.83885 9.83893 6.64358 9.83893 6.41719C9.83893 6.18592 9.70077 5.98714 9.50242 5.89881C9.50373 5.94907 9.50494 6.00385 9.50607 6.06258C9.51053 6.29538 9.51363 6.59478 9.51488 6.92983Z" fill="#50CE1B"/>
<path fill-rule="evenodd" clip-rule="evenodd" d="M11.99 6.33712C12.1761 3.02872 9.64498 0.195834 6.33657 0.00970296C3.02817 -0.176428 0.195285 2.35468 0.00915364 5.66308C-0.176978 8.97149 2.35413 11.8044 5.66253 11.9905C8.97094 12.1766 11.8038 9.64553 11.99 6.33712ZM5.99987 2.60156H5.99945L5.99903 2.60156C4.36035 2.60643 2.95402 3.72614 2.56494 5.29851C2.01588 5.37547 1.59362 5.84686 1.59362 6.41719C1.59362 6.97185 1.993 7.43292 2.51997 7.52864C2.7501 8.58866 3.66793 9.37664 4.76484 9.42428C5.48477 9.99934 6.51094 9.9992 7.23072 9.42387C8.32625 9.37226 9.24478 8.58906 9.47508 7.52864C10.0021 7.43293 10.4014 6.97185 10.4014 6.41719C10.4014 5.84708 9.97949 5.37583 9.43074 5.29859C9.21939 4.43509 8.70005 3.7067 8.00324 3.22541C8.04949 3.12178 8.1535 3.00618 8.34356 2.89832C8.6109 2.74662 8.99949 2.64375 9.44518 2.64375C9.60051 2.64375 9.72643 2.51783 9.72643 2.3625C9.72643 2.20717 9.60051 2.08125 9.44518 2.08125C8.92056 2.08125 8.43259 2.20104 8.06594 2.4091C7.83613 2.53952 7.63165 2.71961 7.51452 2.9427C7.41833 2.89691 7.31981 2.85538 7.21923 2.81832C7.29136 2.58938 7.48884 2.44219 7.69206 2.44219C7.84739 2.44219 7.97331 2.31627 7.97331 2.16094C7.97331 2.00561 7.84739 1.87969 7.69206 1.87969C7.20394 1.87969 6.81297 2.22029 6.6784 2.66695C6.45835 2.62399 6.23144 2.60156 5.99987 2.60156Z" fill="#50CE1B"/>
</g>
<defs>
<clipPath id="clip0">
<rect width="12" height="12" fill="white"/>
</clipPath>
</defs>
</svg>
