<svg width="12" height="12" viewBox="0 0 12 12" fill="none" xmlns="http://www.w3.org/2000/svg">
<path d="M5.20936 5.90134C4.81989 5.28514 4.39705 4.99477 4.16115 4.83453C4.03266 4.74726 3.85775 4.78067 3.77047 4.90916C3.68319 5.03765 3.7166 5.21256 3.8451 5.29984C4.05556 5.4428 4.40995 5.68437 4.74145 6.21388C4.59738 6.25913 4.43132 6.28594 4.25625 6.28594C3.91893 6.28594 3.60754 6.18167 3.42387 5.998C3.17947 5.7536 3.02559 5.37195 2.93674 4.91874C2.85777 4.51597 2.83554 4.08565 2.83185 3.70372C3.21378 3.70742 3.6441 3.72965 4.04687 3.80861C4.4998 3.89741 4.88127 4.05117 5.12569 4.29531C5.31844 4.49011 5.42008 4.81783 5.4118 5.17373C5.40492 5.46904 5.32364 5.73162 5.20936 5.90134Z" fill="#50CE1B"/>
<path d="M8.18704 5.91694C7.72222 6.13588 7.35565 6.42577 7.06831 6.76049C7.24672 6.85338 7.48972 6.91406 7.75312 6.91406C8.09733 6.91406 8.40162 6.8134 8.58368 6.62796L8.58459 6.62704L8.5855 6.62613C8.8299 6.38173 8.98378 6.00007 9.07264 5.54687C9.15193 5.14243 9.17402 4.71022 9.17757 4.32712C8.79447 4.33067 8.36226 4.35276 7.95782 4.43205C7.50462 4.5209 7.12296 4.67479 6.87856 4.91919L6.87812 4.91962L6.87768 4.92006C6.68432 5.11172 6.58237 5.43798 6.5917 5.79519C6.59688 5.99348 6.63574 6.17782 6.69588 6.32967C7.02032 5.96821 7.4306 5.65146 7.94734 5.40806C8.08786 5.34187 8.25543 5.40213 8.32162 5.54265C8.38781 5.68317 8.32756 5.85075 8.18704 5.91694Z" fill="#50CE1B"/>
<path fill-rule="evenodd" clip-rule="evenodd" d="M6 12C9.31371 12 12 9.31371 12 6C12 2.68629 9.31371 0 6 0C2.68629 0 0 2.68629 0 6C0 9.31371 2.68629 12 6 12ZM2.26875 3.57656C2.26875 3.34247 2.45474 3.14062 2.70469 3.14062C3.1273 3.14062 3.65285 3.15816 4.15509 3.25662C4.65227 3.3541 5.16359 3.53771 5.52387 3.898L5.52431 3.89844L5.52475 3.89888C5.86141 4.23852 5.9846 4.73791 5.97414 5.18682C5.96376 5.63257 5.81978 6.10453 5.52856 6.39575C5.51694 6.40737 5.50503 6.41877 5.49284 6.42994C5.64969 6.77595 5.78845 7.19053 5.89344 7.68942C6.00271 7.39169 6.14248 7.09994 6.31979 6.82395C6.13366 6.53897 6.0387 6.16619 6.02939 5.80988C6.01764 5.35987 6.14057 4.85902 6.48125 4.521C6.84151 4.161 7.35261 3.9775 7.8496 3.88006C8.35184 3.78159 8.87739 3.76406 9.3 3.76406C9.54736 3.76406 9.72841 3.96522 9.74024 4.18991L9.74063 4.19729V4.20469C9.74063 4.6273 9.72309 5.15285 9.62463 5.65509C9.52723 6.15186 9.34384 6.66274 8.98414 7.02298C8.65998 7.35246 8.18663 7.47656 7.75312 7.47656C7.40014 7.47656 7.02885 7.39215 6.73709 7.22C6.2403 8.04478 6.09844 9.03708 6.09844 9.90469C6.09844 10.06 5.97252 10.1859 5.81719 10.1859C5.66186 10.1859 5.53594 10.06 5.53594 9.90469C5.53594 8.39831 5.30029 7.39394 5.0053 6.71792C4.77007 6.80533 4.50849 6.84844 4.25625 6.84844C3.82482 6.84844 3.34871 6.71833 3.02613 6.39575C2.66584 6.03546 2.48222 5.52415 2.38475 5.02696C2.28628 4.52473 2.26875 3.99918 2.26875 3.57656Z" fill="#50CE1B"/>
</svg>
