<svg width="12" height="12" viewBox="0 0 12 12" fill="none" xmlns="http://www.w3.org/2000/svg">
<g clip-path="url(#clip0)">
<path fill-rule="evenodd" clip-rule="evenodd" d="M6.33707 0.0100692C9.64548 0.1962 12.1766 3.02909 11.9905 6.3375C11.8043 9.64591 8.97144 12.177 5.66303 11.9909C2.35462 11.8048 -0.176489 8.97186 0.00964193 5.66345C0.195773 2.35504 3.02866 -0.176062 6.33707 0.0100692ZM2.84069 9.46877C6.18756 7.65002 6.53444 4.42501 6.53444 4.42501C6.53444 4.42501 8.21725 4.3922 9.15944 5.22189C7.43444 9.46408 2.84069 9.46877 2.84069 9.46877ZM8.90162 4.51876L8.84069 4.67345C8.33913 4.39689 7.76256 4.27033 7.34069 4.20939L7.36881 4.05939C7.37819 4.0547 7.61725 3.9797 7.94069 4.0172C8.36256 3.40783 8.29694 2.8547 8.29694 2.8547L8.55475 2.53126C8.75631 2.90158 8.78444 3.6047 8.49381 4.19064C8.64381 4.27501 8.77975 4.38283 8.90162 4.51876Z" fill="#50CE1B"/>
</g>
<defs>
<clipPath id="clip0">
<rect width="12" height="12" fill="white"/>
</clipPath>
</defs>
</svg>
