<svg width="12" height="12" viewBox="0 0 12 12" fill="none" xmlns="http://www.w3.org/2000/svg">
<g clip-path="url(#clip0)">
<path d="M2.99278 8.20952C2.90098 8.42685 2.84327 8.61146 2.81628 8.76418C2.77267 9.01096 2.81716 9.1206 2.85929 9.16927C2.89315 9.1989 2.94878 9.22387 3.0455 9.22907C3.14842 9.2346 3.27761 9.21611 3.42639 9.17527C3.72379 9.09363 4.04079 8.93969 4.2747 8.81697C4.56915 8.6602 4.89236 8.46384 5.23908 8.23087C5.00926 8.07485 4.79252 7.9007 4.58887 7.70997C4.47549 7.6038 4.46966 7.42581 4.57584 7.31244C4.68201 7.19906 4.85999 7.19323 4.97337 7.2994C5.20953 7.52057 5.46404 7.7158 5.73693 7.88281C6.25452 7.50762 6.8139 7.06253 7.40039 6.55591L7.40103 6.55536L7.40168 6.55481C7.6186 6.3697 7.73367 6.14676 7.7515 5.9022C6.90872 5.78556 6.24044 5.11863 6.12177 4.2765C5.87892 4.29428 5.65865 4.40898 5.47319 4.62632L5.47264 4.62696L5.47208 4.6276C5.36598 4.75043 5.26255 4.87205 5.16186 4.99234C5.28886 5.19908 5.42924 5.39697 5.58078 5.58374C5.67864 5.70436 5.66019 5.88148 5.53957 5.97935C5.41895 6.07721 5.24183 6.05876 5.14396 5.93814C5.01747 5.78223 4.89801 5.61926 4.78663 5.45027C4.13033 6.26932 3.61537 7.01405 3.27303 7.63802C3.41925 7.85581 3.58604 8.05767 3.77337 8.24139C3.88426 8.35016 3.88599 8.52823 3.77723 8.63912C3.66846 8.75002 3.49039 8.75175 3.3795 8.64298C3.24049 8.50665 3.11159 8.36189 2.99278 8.20952Z" fill="#50CE1B"/>
<path d="M6.66455 3.98466L6.69127 4.27126C6.7955 4.79657 7.20526 5.21292 7.72705 5.32683L8.0484 5.35923C8.56837 5.41167 9.11139 5.34015 9.48032 5.206L9.4817 5.20549L9.48308 5.20501C9.7093 5.12541 9.81636 5.04442 9.86487 4.99087C9.90283 4.94896 9.90833 4.92078 9.90912 4.90776C9.90799 4.89595 9.90214 4.86959 9.8681 4.83045C9.82506 4.78095 9.73107 4.70506 9.53307 4.6271C9.30963 4.54572 9.08435 4.49086 8.85218 4.46553L8.30864 4.40623L8.67297 3.99853C8.85198 3.79821 8.99918 3.57908 9.10805 3.34137C9.24025 3.02819 9.17889 2.91115 9.14787 2.88012C9.11479 2.84705 8.99073 2.78495 8.68192 2.91526C8.44257 3.02487 8.21996 3.17215 8.02701 3.34832L7.61786 3.72189L7.55778 3.17113C7.53245 2.93896 7.47759 2.71368 7.3962 2.49024C7.31816 2.29202 7.24239 2.19855 7.19361 2.15644C7.14988 2.11869 7.12464 2.11874 7.12035 2.11875L7.12018 2.11875C7.11028 2.11875 7.08032 2.11976 7.03244 2.16313C6.97893 2.21161 6.898 2.31856 6.81845 2.54448C6.68774 2.91998 6.61651 3.46342 6.66396 3.97827C6.66418 3.98039 6.66438 3.98252 6.66455 3.98466Z" fill="#50CE1B"/>
<path fill-rule="evenodd" clip-rule="evenodd" d="M6.33657 0.00970296C9.64498 0.195834 12.1761 3.02872 11.99 6.33712C11.8038 9.64553 8.97094 12.1766 5.66253 11.9905C2.35413 11.8044 -0.176978 8.97149 0.00915364 5.66308C0.195285 2.35468 3.02817 -0.176428 6.33657 0.00970296ZM7.12018 1.55625C6.9707 1.55625 6.80614 1.60915 6.6548 1.74625C6.50913 1.87821 6.38622 2.07818 6.28769 2.35821L6.28754 2.35863L6.2874 2.35905C6.15639 2.73517 6.07991 3.225 6.08722 3.71498C5.68849 3.74231 5.32765 3.93063 5.04588 4.2605C4.89788 4.43185 4.75458 4.60135 4.61625 4.76864C4.60605 4.77919 4.59678 4.79046 4.58847 4.80229C3.77044 5.79471 3.12919 6.70832 2.72631 7.46665C2.7014 7.49694 2.68343 7.53182 2.67299 7.56876C2.4601 7.98367 2.31782 8.35246 2.26236 8.6663C2.20423 8.99526 2.23279 9.32258 2.45207 9.55753L2.45538 9.56108L2.46663 9.57232L2.46984 9.57534C2.62865 9.72446 2.82733 9.78066 3.01532 9.79076C3.20141 9.80076 3.39537 9.76709 3.5753 9.7177C3.93501 9.61896 4.29735 9.44032 4.53681 9.31467L4.53754 9.31429L4.53826 9.3139C5.43574 8.83621 6.55492 8.0295 7.76751 6.98209C8.0974 6.7003 8.28525 6.33702 8.31291 5.93811C8.80599 5.94815 9.29668 5.87106 9.67118 5.73513C9.95048 5.63668 10.15 5.51394 10.2817 5.36851C10.4188 5.21717 10.4717 5.0526 10.4717 4.90313V4.89859L10.4716 4.89406C10.4619 4.59462 10.2493 4.30356 9.73527 4.10219L9.73225 4.10101L9.72921 4.0999C9.61654 4.05873 9.5025 4.02297 9.38674 3.99313C9.47534 3.85955 9.55406 3.71899 9.62138 3.57141L9.62292 3.56803L9.62437 3.56462C9.78092 3.19597 9.83323 2.76999 9.54562 2.48238C9.26006 2.19682 8.83179 2.2405 8.45869 2.39894L8.45527 2.40039L8.4519 2.40193C8.30549 2.46871 8.16421 2.547 8.02993 2.63557C8.00013 2.52015 7.96446 2.40644 7.92341 2.2941L7.9223 2.29106L7.92112 2.28804C7.72109 1.77744 7.42836 1.55625 7.12018 1.55625Z" fill="#50CE1B"/>
</g>
<defs>
<clipPath id="clip0">
<rect width="12" height="12" fill="white"/>
</clipPath>
</defs>
</svg>
